# Blender 4.0.2
# www.blender.org
mtllib Image3.mtl
o Plane.002
v 1.530282 -0.031738 -1.042665
v -1.837690 -0.041106 -1.000270
v 1.543339 -0.020219 0.090603
v -1.837726 -0.028726 0.221716
v -0.104961 -0.017085 0.873247
v 1.155175 -0.016894 0.530270
v -0.990851 -0.022005 0.641938
v 0.558439 -0.015924 0.797363
v 0.235216 -0.016129 0.869876
v -0.555493 -0.019151 0.798608
vn -0.0029 0.9999 -0.0101
vt 0.375000 1.000000
vt 0.250000 1.000000
vt 0.000000 0.000000
vt 0.000000 1.000000
vt 1.000000 0.000000
vt 0.625000 1.000000
vt 0.750000 1.000000
vt 1.000000 1.000000
vt 0.500000 1.000000
vt 0.437500 1.000000
s 0
f 8/1/1 6/2/1 1/3/1
f 3/4/1 1/3/1 6/2/1
f 1/3/1 2/5/1 10/6/1
f 10/6/1 2/5/1 7/7/1
f 2/5/1 4/8/1 7/7/1
f 10/6/1 5/9/1 1/3/1
f 5/9/1 9/10/1 1/3/1
f 9/10/1 8/1/1 1/3/1
