# Blender 4.0.2
# www.blender.org
mtllib Image1.mtl
o Plane.004
v 1.654208 -0.001625 -1.728115
v -1.689247 0.003706 -1.705494
v 1.693784 0.007466 0.986875
v -1.715014 0.000701 1.072537
v 1.612449 -0.001559 -1.727833
v -1.597052 0.003559 -1.706117
v -1.165091 0.002476 -1.349089
v -0.520543 0.001180 -1.109131
v 0.343288 -0.000182 -1.129455
v 1.080911 -0.001142 -1.331437
vn -0.0005 1.0000 -0.0015
vt 0.000000 0.000000
vt 0.012490 0.000000
vt 0.172833 0.114077
vt 0.393343 0.171470
vt 0.650710 0.175916
vt 0.842987 0.104881
vt 0.972425 0.000000
vt 1.000000 0.000000
vt 1.000000 0.810743
vt 0.003511 0.787211
s 0
f 1/1/1 5/2/1 10/3/1 9/4/1 8/5/1 7/6/1 6/7/1 2/8/1 4/9/1 3/10/1
